<svg width="1974" height="518" viewBox="0 0 1974 518" fill="none" xmlns="http://www.w3.org/2000/svg">
  <circle cx="259" cy="259" r="259" fill="#FF0058" />
  <path d="M259 115L383.708 331H134.292L259 115Z" fill="white" />
  <path class="logo-text" opacity="0.99"
    d="M1815.56 454C1795.18 454 1777.57 450.788 1762.72 444.364C1747.87 437.94 1736.48 428.812 1728.54 416.978C1720.59 404.806 1716.62 390.437 1716.62 373.87C1716.62 358.317 1720.25 344.624 1727.5 332.791C1734.75 320.619 1745.8 310.476 1760.65 302.362C1775.85 294.247 1794.67 288.499 1817.11 285.118L1903.62 271.425V327.212L1831.1 339.891C1820.05 341.919 1811.59 345.47 1805.72 350.541C1799.85 355.274 1796.91 362.206 1796.91 371.334C1796.91 379.787 1800.19 386.38 1806.75 391.113C1813.31 395.847 1821.43 398.213 1831.1 398.213C1843.88 398.213 1855.1 395.509 1864.77 390.099C1874.44 384.689 1881.86 377.42 1887.04 368.291C1892.57 358.825 1895.33 348.512 1895.33 337.355V265.339C1895.33 254.858 1891.01 246.068 1882.38 238.968C1874.09 231.867 1862.7 228.317 1848.19 228.317C1834.38 228.317 1822.12 232.036 1811.42 239.475C1801.06 246.913 1793.46 256.718 1788.62 268.89L1726.46 239.982C1731.99 224.429 1740.79 211.074 1752.88 199.917C1764.97 188.76 1779.47 180.138 1796.39 174.052C1813.31 167.966 1831.79 164.923 1851.82 164.923C1875.65 164.923 1896.71 169.15 1915.02 177.602C1933.32 186.055 1947.48 197.888 1957.49 213.103C1967.85 227.979 1973.03 245.391 1973.03 265.339V447.914H1900.51V403.285L1918.12 400.242C1909.84 412.414 1900.68 422.557 1890.67 430.671C1880.65 438.447 1869.43 444.195 1857 447.914C1844.57 451.971 1830.75 454 1815.56 454Z"
    fill="#fff" />
  <path class="logo-text" opacity="0.99" d="M1593.46 447.914V64H1671.16V447.914H1593.46Z" fill="#fff" />
  <path class="logo-text" opacity="0.99"
    d="M1413.02 454C1382.98 454 1356.91 447.576 1334.81 434.728C1312.71 421.542 1295.61 403.961 1283.52 381.984C1271.44 360.008 1265.39 335.665 1265.39 308.955C1265.39 281.23 1271.61 256.549 1284.04 234.91C1296.82 213.272 1313.91 196.198 1335.32 183.688C1356.74 171.178 1380.91 164.923 1407.84 164.923C1430.29 164.923 1450.15 168.473 1467.41 175.574C1484.68 182.336 1499.19 191.971 1510.93 204.481C1523.01 216.991 1532.16 231.529 1538.38 248.096C1544.6 264.325 1547.7 282.076 1547.7 301.347C1547.7 306.757 1547.36 312.167 1546.67 317.576C1546.32 322.648 1545.46 327.043 1544.08 330.762H1332.22V274.975H1500.05L1463.27 301.347C1466.72 286.809 1466.55 273.961 1462.75 262.804C1458.95 251.308 1452.22 242.349 1442.55 235.925C1433.23 229.163 1421.66 225.782 1407.84 225.782C1394.38 225.782 1382.81 228.994 1373.14 235.417C1363.47 241.841 1356.22 251.308 1351.38 263.818C1346.55 276.328 1344.65 291.542 1345.68 309.462C1344.3 325.014 1346.2 338.707 1351.38 350.541C1356.56 362.375 1364.51 371.672 1375.21 378.434C1385.92 384.858 1398.87 388.07 1414.06 388.07C1427.87 388.07 1439.62 385.365 1449.28 379.956C1459.3 374.546 1467.07 367.108 1472.59 357.641L1534.75 386.549C1529.23 400.073 1520.42 411.906 1508.34 422.05C1496.6 432.193 1482.61 440.138 1466.38 445.886C1450.15 451.295 1432.36 454 1413.02 454Z"
    fill="#fff" />
  <path class="logo-text" opacity="0.99"
    d="M1096.36 454C1066.31 454 1040.24 447.576 1018.14 434.728C996.037 421.542 978.943 403.961 966.857 381.984C954.77 360.008 948.727 335.665 948.727 308.955C948.727 281.23 954.943 256.549 967.375 234.91C980.152 213.272 997.246 196.198 1018.66 183.688C1040.07 171.178 1064.24 164.923 1091.18 164.923C1113.62 164.923 1133.48 168.473 1150.75 175.574C1168.01 182.336 1182.52 191.971 1194.26 204.481C1206.35 216.991 1215.5 231.529 1221.71 248.096C1227.93 264.325 1231.04 282.076 1231.04 301.347C1231.04 306.757 1230.69 312.167 1230 317.576C1229.66 322.648 1228.79 327.043 1227.41 330.762H1015.55V274.975H1183.38L1146.6 301.347C1150.06 286.809 1149.88 273.961 1146.08 262.804C1142.29 251.308 1135.55 242.349 1125.88 235.925C1116.56 229.163 1104.99 225.782 1091.18 225.782C1077.71 225.782 1066.14 228.994 1056.47 235.417C1046.8 241.841 1039.55 251.308 1034.71 263.818C1029.88 276.328 1027.98 291.542 1029.02 309.462C1027.64 325.014 1029.53 338.707 1034.71 350.541C1039.89 362.375 1047.84 371.672 1058.54 378.434C1069.25 384.858 1082.2 388.07 1097.39 388.07C1111.21 388.07 1122.95 385.365 1132.62 379.956C1142.63 374.546 1150.4 367.108 1155.93 357.641L1218.09 386.549C1212.56 400.073 1203.76 411.906 1191.67 422.05C1179.93 432.193 1165.94 440.138 1149.71 445.886C1133.48 451.295 1115.7 454 1096.36 454Z"
    fill="#fff" />
  <path class="logo-text" opacity="0.99"
    d="M636 447.914V70.0854H783.63C810.221 70.0854 833.703 74.6498 854.078 83.7786C874.798 92.9073 891.029 106.431 902.77 124.351C914.511 142.27 920.382 164.416 920.382 190.788C920.382 216.483 914.339 238.46 902.252 256.717C890.165 274.637 873.935 288.161 853.56 297.29L941.62 447.914H851.488L756.176 281.061L807.976 310.983H716.29V447.914H636ZM716.29 242.517H784.148C795.544 242.517 805.386 240.32 813.674 235.924C821.962 231.529 828.351 225.443 832.84 217.667C837.675 209.89 840.092 200.931 840.092 190.788C840.092 180.307 837.675 171.178 832.84 163.401C828.351 155.625 821.962 149.539 813.674 145.144C805.386 140.749 795.544 138.551 784.148 138.551H716.29V242.517Z"
    fill="#fff" />
</svg>