<svg viewBox="0 0 119 49.52" xmlns="http://www.w3.org/2000/svg"><g fill="#718cc7"><path d="m87.18 21.89c1.52.43 3.95-1.67 6.21-9.09 2.28-7.43 1.36-12.12-.46-12.73-1.81-.6-4.55 3.03-6.37 9.09-1.82 6.07-1.51 12.13.6 12.73"/><path d="m82.75 23.22c.86-1.02 1.17-4.17-2.5-8.92-3.66-4.74-7.46-5.76-8.57-4.24-1.03 1.42-.46 5.08 2.54 8.92 3.01 3.83 7.13 5.87 8.53 4.23"/><path d="m79.74 27.94c-.07-1.02-1.98-2.71-7.74-2.7-5.76 0-9.11 1.89-8.87 3.31.22 1.33 3.08 2.73 7.78 2.68 4.69-.03 8.94-1.62 8.83-3.29"/></g><path d="m80.7 32.68c-.4-.58-2.26-.65-6.1 2.26-3.83 2.91-5.42 5.74-4.77 6.48.62.7 3.02.1 6.13-2.29s5.4-5.5 4.74-6.45" fill="#08339c"/><path d="m84.97 33.68c-.75-.26-2.43.99-3.88 6.42s-.96 9.18.1 9.41c1 .21 2.73-2.03 3.89-6.47 1.16-4.43 1.12-8.94-.11-9.36" fill="#08339c"/><path d="m89.1 32.11c-.81.85-1.03 3.36 1.85 7.62s6.56 5.06 7.59 3.77c.98-1.2.3-4.21-2.06-7.65-2.37-3.45-6.08-5.12-7.38-3.74" fill="#718cc7"/><path d="m91.24 28.75c.09 1.72 3.08 4.29 12.57 4.53 9.48.23 15.33-2.96 15.19-5.55-.15-2.59-5.46-4.38-13.18-4.53-7.74-.15-14.73 2.75-14.58 5.55" fill="#718cc7"/><path d="m91.15 24.08c.93 1.42 4.56.99 12.18-4.7 7.61-5.69 10.34-11.26 9.34-12.79-.9-1.42-6 .1-12.19 4.76-6.19 4.67-10.62 10.75-9.33 12.73" fill="#718cc7"/><path d="m12.72 18.25c-5.94 0-12.68 3.72-12.72 11.71-.02 5.42 3.9 7.87 9.35 7.91 8.49.07 12.88-6.73 12.75-12.14-.11-4.6-3.92-7.48-9.38-7.48zm-2.53 14.53c-1.73.02-3.15-1.2-2.88-3.9.28-2.94 2.32-5.52 4.44-5.41 1.44.07 2.83 1.07 2.69 3.26-.25 3.87-1.76 6.03-4.25 6.04z"/><path d="m38.23 18.25c-4.34 0-6.13 2.68-6.13 2.68l.07-2.26h-6.77l-4.41 26.15h7.12l1.59-8.99s1.54 2.04 5.12 2.04c6.3 0 9.42-5.66 9.63-11.82.17-4.86-1.9-7.8-6.23-7.8zm-1.11 9.24c-.19 2.83-1.43 4.77-3.68 4.79-1.46 0-2.7-.92-2.59-3.07.14-2.66 1.37-5.44 4.03-5.38 1.48.03 2.41.89 2.24 3.65z"/><path d="m46.69 18.75-.88 5.28h2.68s-.88 4.91-1.59 9.37c-.71 4.47 4.58 4.47 5.78 4.47s5.06-.46 5.06-.46l.81-4.82s-1.68.06-3.16.11c-1.47.06-1.01-1.09.27-8.72l4.34.02.89-5.3h-4.34l1.19-7.04-7.78 3.65-.58 3.43h-2.68z"/></svg>